<svg xmlns="http://www.w3.org/2000/svg" width="500" height="500">
  <rect width="100%" height="100%" fill="none"/>
  <g stroke="#1f1f1f" stroke-width="0.4">
    <!-- Horizontal lines -->
    <line x1="0" y1="55.55" x2="500" y2="55.55"/>
    <line x1="0" y1="111.1" x2="500" y2="111.1"/>
    <line x1="0" y1="166.65" x2="500" y2="166.65"/>
    <line x1="0" y1="222.2" x2="500" y2="222.2"/>
    <line x1="0" y1="277.75" x2="500" y2="277.75"/>
    <line x1="0" y1="333.3" x2="500" y2="333.3"/>
    <line x1="0" y1="388.85" x2="500" y2="388.85"/>
    <line x1="0" y1="444.4" x2="500" y2="444.4"/>
    
    <!-- Vertical lines -->
    <line x1="55.55" y1="0" x2="55.55" y2="500"/>
    <line x1="111.1" y1="0" x2="111.1" y2="500"/>
    <line x1="166.65" y1="0" x2="166.65" y2="500"/>
    <line x1="222.2" y1="0" x2="222.2" y2="500"/>
    <line x1="277.75" y1="0" x2="277.75" y2="500"/>
    <line x1="333.3" y1="0" x2="333.3" y2="500"/>
    <line x1="388.85" y1="0" x2="388.85" y2="500"/>
    <line x1="444.4" y1="0" x2="444.4" y2="500"/>
  </g>
</svg>
