<svg xmlns="http://www.w3.org/2000/svg" width="1024" height="1024" viewBox="0 0 1024 1024" version="1.1"><path d="" stroke="none" fill="#000000" fill-rule="evenodd"/><path d="M 488.462 188.018 C 483.921 189.407, 481.251 192.855, 470.276 211.500 C 449.027 247.602, 449.540 250.175, 478.161 251 C 495.500 251.500, 495.500 251.500, 496 259.341 C 497.106 276.678, 515 276.330, 515 258.972 C 515 251.919, 515.586 251, 520.082 251 C 528.677 251, 527.688 235.908, 518.976 234.131 C 515.500 233.422, 515.500 233.422, 515 212.736 C 514.379 187.062, 508.747 181.816, 488.462 188.018 M 322.500 204.867 C 313.226 207.307, 303 216.295, 303 222.007 C 303 232.223, 311.806 235.430, 319.295 227.940 C 329.505 217.730, 343.055 222.198, 336.162 233.502 C 334.412 236.371, 332.225 238.549, 318.585 251 C 300.690 267.336, 295.846 277.910, 302.589 285.923 C 309.709 294.384, 360 289.745, 360 280.627 C 360 271.767, 357.282 270.661, 337.664 271.537 C 320.368 272.309, 320.340 273.244, 338.055 258.433 C 368.956 232.597, 358.178 195.481, 322.500 204.867 M 489.234 213.750 C 483.645 222.485, 478 232.324, 478 233.331 C 478 234.172, 487.248 234.185, 492.292 233.351 C 496.083 232.725, 496.083 232.725, 495.940 219.362 C 495.773 203.716, 495.695 203.651, 489.234 213.750 M 706.286 212.402 C 673.282 223.101, 661.835 272.874, 687.821 292.694 C 702.339 303.767, 726.912 298.350, 734.477 282.407 C 746.467 257.141, 722.770 228.814, 699.887 241.060 C 696.105 243.085, 696.787 241.214, 701.667 236.181 C 706.940 230.741, 713.623 228, 721.609 228 C 728.892 228, 732.745 219.612, 728.098 213.873 C 725.752 210.976, 713.279 210.135, 706.286 212.402 M 699.225 258.004 C 691.977 262.423, 692.223 274.503, 699.655 279.096 C 706.558 283.362, 715.507 280.054, 718.070 272.288 C 721.881 260.742, 709.779 251.569, 699.225 258.004 M 583.500 260.716 C 576.889 262.315, 575.220 267.338, 574.345 288.268 C 573.452 309.636, 575.073 311.502, 590.990 307.424 C 602.963 304.357, 610 308.045, 610 317.387 C 610 328.194, 600.627 331.854, 586.533 326.549 C 578.484 323.519, 575.037 324.295, 572.465 329.715 C 568.011 339.101, 583.906 349.107, 601 347.678 C 639.631 344.448, 639.395 289.487, 600.750 289.543 C 593 289.555, 593 289.555, 593 284.900 C 593 278.165, 593.692 277.880, 608.282 278.618 C 625.453 279.486, 633.080 271.136, 622.923 262.589 C 619.932 260.072, 591.705 258.731, 583.500 260.716 M 216.989 291.445 C 194.372 299.721, 187.068 306.277, 191.663 314.175 C 194.096 318.357, 197.706 318.875, 204.834 316.066 C 210 314.029, 210 314.029, 210 341.369 C 210 373.196, 210.233 374, 219.452 374 C 229.116 374, 229.152 373.833, 228.792 330.277 C 228.451 289.161, 227.929 287.442, 216.989 291.445 M 413 301.579 C 411.075 301.799, 403.875 302.454, 397 303.035 C 337.392 308.072, 265 328.629, 265 340.520 C 265 349.097, 271.227 351.355, 281.803 346.612 C 339.263 320.841, 443.395 310.500, 520.109 322.948 C 533.799 325.169, 538.455 323.141, 538.455 314.957 C 538.455 308.674, 537.099 308.017, 519.860 305.946 C 490.031 302.363, 428.225 299.837, 413 301.579 M 782.853 305.304 C 754.040 317.494, 757.892 360.460, 788.170 364.610 C 793.077 365.282, 800.618 363.601, 803.256 361.246 C 805.934 358.856, 806.180 360.188, 803.867 364.559 C 799.201 373.377, 792.471 377, 780.758 377 C 766.748 377, 762.090 389.431, 774.779 392.956 C 801.138 400.276, 823.912 379.720, 825.695 347 C 827.391 315.880, 806.322 295.374, 782.853 305.304 M 788.500 322.785 C 777.709 329.586, 781.535 348.008, 793.735 347.996 C 802.039 347.988, 806.495 342.493, 805.750 333.181 C 804.985 323.628, 795.875 318.138, 788.500 322.785 M 654.656 339.120 C 645.217 344.672, 649.505 351.910, 666.013 358.291 C 689.628 367.420, 723.333 383.023, 737.044 391.174 C 749.666 398.678, 757 397.190, 757 387.127 C 757 378.600, 662.720 334.376, 654.656 339.120 M 564.089 387.964 C 554.253 389.555, 554 390.532, 554 427.016 C 554 444.607, 553.776 459, 553.502 459 C 553.229 459, 550.746 457.377, 547.985 455.394 C 501.605 422.073, 440.458 476.727, 456.023 537.590 C 467.818 583.711, 518.911 602.648, 550.042 572.437 C 554.273 568.332, 555 568.199, 555 571.532 C 555 584.242, 577.640 590.451, 587.615 580.476 C 591.708 576.383, 591.302 396.489, 587.189 391.886 C 583.342 387.580, 575.106 386.182, 564.089 387.964 M 204.486 395.385 C 170.068 401.982, 148.923 430.249, 156.538 459.485 C 161.492 478.502, 177.086 490.806, 213 504.032 C 239.062 513.629, 249.970 520.946, 251.472 529.837 C 256.220 557.937, 211.918 562.882, 184.466 537.316 C 176.032 529.461, 172.017 528.254, 164.718 531.377 C 139.741 542.064, 163.418 577.015, 201.500 585.675 C 250.936 596.915, 293.752 569.141, 291.768 527.119 C 290.569 501.734, 278.478 490.525, 232.358 472.045 C 198.966 458.665, 191.712 451.481, 197.769 437.789 C 206.096 418.966, 240.701 421.165, 252.225 441.250 C 261.381 457.207, 286.980 450.409, 285.688 432.364 C 283.847 406.654, 242.926 388.018, 204.486 395.385 M 783.635 410.073 C 772.113 419.135, 803.690 442.566, 818.395 435.866 C 822.424 434.030, 821.724 432.860, 810.919 423.379 C 792.915 407.582, 789.141 405.741, 783.635 410.073 M 808.677 447.524 C 775.899 453.736, 753.610 482.290, 753.661 518 C 753.792 608.407, 888.689 610.832, 892.758 520.500 C 894.905 472.837, 855.513 438.648, 808.677 447.524 M 322.380 448.012 C 311.362 449.585, 311.855 446.844, 312.228 504.500 C 312.570 557.363, 312.585 557.501, 319.022 567.220 C 335.173 591.603, 378.292 593.584, 398.144 570.856 C 400.789 567.829, 400.789 567.829, 401.518 573.128 C 402.931 583.405, 414.909 588.190, 427.965 583.694 C 436.291 580.826, 436 583.299, 436 515.487 C 436 442.759, 437.374 447.859, 417.775 447.858 C 399.916 447.857, 400 447.635, 400 494.723 C 400 546.422, 394.540 556.842, 368.543 554.755 C 349.497 553.227, 348.058 549.025, 348.024 494.827 C 347.995 446.445, 348.861 448.914, 331.500 447.756 C 328.750 447.573, 324.646 447.688, 322.380 448.012 M 623.157 448.092 C 611.587 449.634, 612 447.659, 612 501.477 C 612 540.053, 612.271 549.619, 613.495 554.320 C 622.326 588.223, 665.746 598.099, 695.140 572.890 C 700.781 568.053, 700.781 568.053, 701.480 572.716 C 702.859 581.911, 711.780 586.570, 724.203 584.584 C 737.068 582.526, 736.500 585.749, 736.500 514.871 C 736.500 444.074, 737.490 449.301, 723.840 448.050 C 701.198 445.974, 701.612 445.146, 701 493.771 C 700.321 547.719, 695.658 556.565, 668.868 554.728 C 649.368 553.392, 648.626 551.350, 648 497.329 C 647.401 445.579, 648.529 449.189, 632.500 447.741 C 630.300 447.543, 626.096 447.701, 623.157 448.092 M 518 477.074 C 499.663 479.137, 488.907 496.306, 490.220 521.416 C 492.837 571.452, 556.096 566.435, 555.985 516.201 C 555.927 489.962, 540.912 474.495, 518 477.074 M 817.871 477.104 C 800.408 479.729, 789 495.087, 789 515.971 C 789 567.981, 856.130 571.333, 858.762 519.455 C 860.187 491.365, 842.799 473.357, 817.871 477.104 M 128.695 513.111 C 118.288 519.165, 133.103 564.944, 155.084 594.657 C 186.359 636.935, 254.431 686.143, 262.021 671.961 C 265.495 665.469, 263.357 662.389, 250.616 655.531 C 194.754 625.463, 151.039 574.426, 143.523 530.500 C 142.582 525, 141.646 519.591, 141.444 518.480 C 140.481 513.181, 133.575 510.272, 128.695 513.111 M 878.270 583.777 C 875.052 584.292, 872.336 588.271, 871.529 593.653 C 868.314 615.093, 849.725 643.120, 825.358 663.268 C 815.499 671.420, 813.735 677.628, 820.150 681.593 C 830.572 688.034, 868.243 648.988, 880.870 618.658 C 891.354 593.474, 890.486 581.823, 878.270 583.777 M 768.500 639.661 C 761.951 641.137, 759.204 643.758, 750.847 656.500 C 717.838 706.827, 717.627 713, 748.923 713 C 766 713, 766 713, 766.032 719.750 C 766.072 728.355, 768.856 732, 775.387 732 C 782.056 732, 785 728.191, 785 719.561 C 785 714.562, 785.177 714.173, 787.750 713.541 C 797.856 711.056, 797.146 696, 786.923 696 C 785.080 696, 785 695.023, 785 672.625 C 785 646.609, 784.656 643.449, 781.611 641.541 C 779.259 640.066, 771.585 638.966, 768.500 639.661 M 296.870 656.977 C 287.451 666.395, 294.342 673, 313.587 673 C 331.745 673, 331.570 668.715, 315.037 708.500 C 303.739 735.688, 303.802 735.423, 307.589 739.923 C 316.486 750.497, 321.023 745.490, 336.323 708.213 C 358.984 653.004, 359.617 655.572, 323.120 654.679 C 299.739 654.107, 299.739 654.107, 296.870 656.977 M 763.869 666.643 C 761.406 669.448, 748 693.188, 748 694.745 C 748 695.907, 764.340 695.687, 765.778 694.506 C 765.930 694.381, 765.930 687.642, 765.778 679.532 C 765.519 665.791, 765.389 664.912, 763.869 666.643 M 599.500 685.930 C 579.915 690.668, 571.720 715.330, 585.795 727.174 C 588.875 729.766, 588.875 729.766, 584.818 733.026 C 563.379 750.255, 583.277 784.429, 613.169 781.718 C 641.576 779.143, 652.140 743.372, 628.140 731.026 C 625.780 729.812, 625.780 729.812, 629.122 727.779 C 653.482 712.966, 629.251 678.734, 599.500 685.930 M 448.490 700.094 C 434.197 701.889, 422.718 714.753, 427.375 723.757 C 430.669 730.128, 437.589 729.831, 443.736 723.055 C 448.751 717.527, 452.217 716.257, 457.514 718.005 C 468.645 721.678, 464.086 737.845, 451.885 737.965 C 446.348 738.019, 442.996 741.178, 443.015 746.323 C 443.039 752.771, 445.647 754.997, 453.184 755.004 C 461.635 755.011, 467.177 760.750, 465.421 767.677 C 462.812 777.964, 450.348 777.999, 440.746 767.746 C 431.996 758.404, 419.245 768.689, 425.948 779.683 C 435.538 795.410, 464.803 799.165, 477.185 786.256 C 489.937 772.962, 487.610 754.516, 472.145 746.312 C 471.950 746.208, 473.483 744.637, 475.552 742.820 C 494.975 725.767, 476.487 696.577, 448.490 700.094 M 603.357 702.992 C 597.294 705.438, 595.952 715.099, 601.077 719.411 C 608.260 725.455, 619 721.014, 619 712 C 619 704.243, 611.277 699.795, 603.357 702.992 M 367.301 711.772 C 358.057 719.037, 362.030 723.911, 382.821 730.812 C 401.915 737.149, 405 736.510, 405 726.221 C 405 718.643, 373.783 706.679, 367.301 711.772 M 696.500 723.110 C 686.600 725.320, 675.153 727.838, 671.062 728.706 C 654.202 732.284, 654.542 748.733, 671.416 745.776 C 712.726 738.537, 724.690 733.866, 722.657 725.769 C 720.843 718.548, 718.163 718.276, 696.500 723.110 M 512.174 740.314 C 509.232 743.446, 509.188 749.955, 512.091 752.582 C 516.934 756.965, 553.655 757.702, 556.426 753.472 C 563.639 742.464, 553.270 738.249, 518.424 738.026 C 515.435 738.007, 513.769 738.617, 512.174 740.314 M 601.299 740.900 C 589.260 748.464, 596.073 764.988, 610.729 763.773 C 626.623 762.454, 625.893 740.475, 609.915 739.290 C 605.727 738.980, 603.775 739.344, 601.299 740.900" stroke="none" fill="#428abd" fill-rule="evenodd"/></svg>